<mxfile host="app.diagrams.net" agent="Mozilla/5.0 (Windows NT 10.0; Win64; x64; rv:130.0) Gecko/20100101 Firefox/130.0" version="24.7.16">
  <diagram name="Page-1" id="srzAFA5wGK1bmv_tZhzp">
    <mxGraphModel dx="2508" dy="853" grid="1" gridSize="10" guides="1" tooltips="1" connect="1" arrows="1" fold="1" page="1" pageScale="1" pageWidth="850" pageHeight="1100" math="0" shadow="0">
      <root>
        <mxCell id="0" />
        <mxCell id="1" parent="0" />
        <mxCell id="s5zvkutuZv6NkAI-lQkc-19" style="edgeStyle=orthogonalEdgeStyle;rounded=0;orthogonalLoop=1;jettySize=auto;html=1;entryX=0;entryY=0.5;entryDx=0;entryDy=0;" edge="1" parent="1" source="s5zvkutuZv6NkAI-lQkc-2" target="s5zvkutuZv6NkAI-lQkc-4">
          <mxGeometry relative="1" as="geometry" />
        </mxCell>
        <mxCell id="s5zvkutuZv6NkAI-lQkc-2" value="&lt;div&gt;Client&lt;br&gt;&lt;/div&gt;" style="rounded=0;whiteSpace=wrap;html=1;align=left;verticalAlign=top;" vertex="1" parent="1">
          <mxGeometry x="-400" y="80" width="790" height="490" as="geometry" />
        </mxCell>
        <mxCell id="s5zvkutuZv6NkAI-lQkc-18" style="edgeStyle=orthogonalEdgeStyle;rounded=0;orthogonalLoop=1;jettySize=auto;html=1;entryX=1;entryY=0.5;entryDx=0;entryDy=0;" edge="1" parent="1" source="s5zvkutuZv6NkAI-lQkc-4" target="s5zvkutuZv6NkAI-lQkc-2">
          <mxGeometry relative="1" as="geometry" />
        </mxCell>
        <mxCell id="s5zvkutuZv6NkAI-lQkc-36" style="edgeStyle=orthogonalEdgeStyle;rounded=0;orthogonalLoop=1;jettySize=auto;html=1;" edge="1" parent="1" source="s5zvkutuZv6NkAI-lQkc-4">
          <mxGeometry relative="1" as="geometry">
            <mxPoint x="1250" y="325" as="targetPoint" />
          </mxGeometry>
        </mxCell>
        <mxCell id="s5zvkutuZv6NkAI-lQkc-4" value="Server" style="rounded=0;whiteSpace=wrap;html=1;align=left;verticalAlign=top;" vertex="1" parent="1">
          <mxGeometry x="430" y="80" width="790" height="490" as="geometry" />
        </mxCell>
        <mxCell id="s5zvkutuZv6NkAI-lQkc-5" value="&lt;div align=&quot;left&quot;&gt;Users Info&lt;/div&gt;" style="rounded=0;whiteSpace=wrap;html=1;align=left;verticalAlign=top;" vertex="1" parent="1">
          <mxGeometry x="450" y="130" width="260" height="430" as="geometry" />
        </mxCell>
        <mxCell id="s5zvkutuZv6NkAI-lQkc-6" value="Punchline (Health)" style="rounded=0;whiteSpace=wrap;html=1;" vertex="1" parent="1">
          <mxGeometry x="460" y="170" width="230" height="60" as="geometry" />
        </mxCell>
        <mxCell id="s5zvkutuZv6NkAI-lQkc-7" value="Statuses" style="rounded=0;whiteSpace=wrap;html=1;" vertex="1" parent="1">
          <mxGeometry x="460" y="240" width="230" height="60" as="geometry" />
        </mxCell>
        <mxCell id="s5zvkutuZv6NkAI-lQkc-8" value="&lt;div&gt;Match Information&lt;br&gt;&lt;/div&gt;" style="rounded=0;whiteSpace=wrap;html=1;align=left;verticalAlign=top;" vertex="1" parent="1">
          <mxGeometry x="720" y="130" width="490" height="200" as="geometry" />
        </mxCell>
        <mxCell id="s5zvkutuZv6NkAI-lQkc-9" value="Time" style="rounded=0;whiteSpace=wrap;html=1;" vertex="1" parent="1">
          <mxGeometry x="730" y="160" width="90" height="50" as="geometry" />
        </mxCell>
        <mxCell id="s5zvkutuZv6NkAI-lQkc-10" value="Damage Multiplier" style="rounded=0;whiteSpace=wrap;html=1;" vertex="1" parent="1">
          <mxGeometry x="830" y="160" width="90" height="50" as="geometry" />
        </mxCell>
        <mxCell id="s5zvkutuZv6NkAI-lQkc-11" value="Damage Multiplier" style="rounded=0;whiteSpace=wrap;html=1;" vertex="1" parent="1">
          <mxGeometry x="930" y="160" width="90" height="50" as="geometry" />
        </mxCell>
        <mxCell id="s5zvkutuZv6NkAI-lQkc-12" value="Damage Multiplier" style="rounded=0;whiteSpace=wrap;html=1;" vertex="1" parent="1">
          <mxGeometry x="1030" y="160" width="90" height="50" as="geometry" />
        </mxCell>
        <mxCell id="s5zvkutuZv6NkAI-lQkc-13" value="Client IPs" style="rounded=0;whiteSpace=wrap;html=1;" vertex="1" parent="1">
          <mxGeometry x="460" y="310" width="230" height="50" as="geometry" />
        </mxCell>
        <mxCell id="s5zvkutuZv6NkAI-lQkc-14" value="Match ID" style="rounded=0;whiteSpace=wrap;html=1;" vertex="1" parent="1">
          <mxGeometry x="730" y="220" width="90" height="50" as="geometry" />
        </mxCell>
        <mxCell id="s5zvkutuZv6NkAI-lQkc-16" value="Possibly Skill Cool down " style="rounded=0;whiteSpace=wrap;html=1;" vertex="1" parent="1">
          <mxGeometry x="460" y="370" width="230" height="60" as="geometry" />
        </mxCell>
        <mxCell id="s5zvkutuZv6NkAI-lQkc-17" value="Frame data" style="rounded=0;whiteSpace=wrap;html=1;" vertex="1" parent="1">
          <mxGeometry x="460" y="440" width="230" height="60" as="geometry" />
        </mxCell>
        <mxCell id="s5zvkutuZv6NkAI-lQkc-20" value="&lt;div align=&quot;left&quot;&gt;User Info&lt;/div&gt;" style="rounded=0;whiteSpace=wrap;html=1;align=left;verticalAlign=top;" vertex="1" parent="1">
          <mxGeometry x="-390" y="120" width="260" height="430" as="geometry" />
        </mxCell>
        <mxCell id="s5zvkutuZv6NkAI-lQkc-22" value="Punchline (Health)" style="rounded=0;whiteSpace=wrap;html=1;" vertex="1" parent="1">
          <mxGeometry x="-375" y="160" width="230" height="60" as="geometry" />
        </mxCell>
        <mxCell id="s5zvkutuZv6NkAI-lQkc-23" value="Statuses" style="rounded=0;whiteSpace=wrap;html=1;" vertex="1" parent="1">
          <mxGeometry x="-375" y="240" width="230" height="60" as="geometry" />
        </mxCell>
        <mxCell id="s5zvkutuZv6NkAI-lQkc-25" value="Possibly Skill Cool down " style="rounded=0;whiteSpace=wrap;html=1;" vertex="1" parent="1">
          <mxGeometry x="-375" y="310" width="230" height="60" as="geometry" />
        </mxCell>
        <mxCell id="s5zvkutuZv6NkAI-lQkc-26" value="Frame data" style="rounded=0;whiteSpace=wrap;html=1;" vertex="1" parent="1">
          <mxGeometry x="-375" y="380" width="230" height="60" as="geometry" />
        </mxCell>
        <mxCell id="s5zvkutuZv6NkAI-lQkc-27" value="&lt;div&gt;Match Information&lt;br&gt;&lt;/div&gt;" style="rounded=0;whiteSpace=wrap;html=1;align=left;verticalAlign=top;" vertex="1" parent="1">
          <mxGeometry x="-110" y="120" width="490" height="200" as="geometry" />
        </mxCell>
        <mxCell id="s5zvkutuZv6NkAI-lQkc-28" value="Time" style="rounded=0;whiteSpace=wrap;html=1;" vertex="1" parent="1">
          <mxGeometry x="-100" y="160" width="90" height="50" as="geometry" />
        </mxCell>
        <mxCell id="s5zvkutuZv6NkAI-lQkc-29" value="Damage Multiplier" style="rounded=0;whiteSpace=wrap;html=1;" vertex="1" parent="1">
          <mxGeometry y="160" width="90" height="50" as="geometry" />
        </mxCell>
        <mxCell id="s5zvkutuZv6NkAI-lQkc-30" value="Match ID" style="rounded=0;whiteSpace=wrap;html=1;" vertex="1" parent="1">
          <mxGeometry x="100" y="160" width="90" height="50" as="geometry" />
        </mxCell>
        <mxCell id="s5zvkutuZv6NkAI-lQkc-31" value="Server Info" style="rounded=0;whiteSpace=wrap;html=1;" vertex="1" parent="1">
          <mxGeometry x="200" y="160" width="90" height="50" as="geometry" />
        </mxCell>
        <mxCell id="s5zvkutuZv6NkAI-lQkc-32" value="Controller Input" style="rounded=0;whiteSpace=wrap;html=1;" vertex="1" parent="1">
          <mxGeometry x="-375" y="450" width="230" height="60" as="geometry" />
        </mxCell>
        <mxCell id="s5zvkutuZv6NkAI-lQkc-35" style="edgeStyle=orthogonalEdgeStyle;rounded=0;orthogonalLoop=1;jettySize=auto;html=1;entryX=1;entryY=0.5;entryDx=0;entryDy=0;" edge="1" parent="1" source="s5zvkutuZv6NkAI-lQkc-34" target="s5zvkutuZv6NkAI-lQkc-4">
          <mxGeometry relative="1" as="geometry" />
        </mxCell>
        <mxCell id="s5zvkutuZv6NkAI-lQkc-34" value="Enemy Client" style="rounded=0;whiteSpace=wrap;html=1;align=left;verticalAlign=top;" vertex="1" parent="1">
          <mxGeometry x="1250" y="80" width="790" height="490" as="geometry" />
        </mxCell>
      </root>
    </mxGraphModel>
  </diagram>
</mxfile>
